<svg version="1.1" xmlns="http://www.w3.org/2000/svg" style="display: block;" viewBox="0 0 2048 2048" width="1024" height="1024" preserveAspectRatio="none">
<path transform="translate(0,0)" fill="rgb(251,228,5)" d="M 1092.95 68.6414 L 1433.12 68.5042 C 1433.31 91.103 1433.26 113.703 1432.95 136.301 L 1433.32 136.819 C 1455.77 136.826 1479.34 136.484 1501.69 136.916 C 1500.09 153.973 1501.36 186.548 1501.2 205.078 C 1524.12 204.962 1547.03 204.974 1569.94 205.113 L 1570.03 301.572 C 1591.87 301.831 1615.58 302.054 1637.39 301.505 C 1640.12 368.528 1636.51 439.131 1638.31 506.501 L 1706.71 506.5 C 1705.83 526.983 1706.72 553.061 1706.63 574.268 C 1773.47 573.229 1843.98 573.725 1910.96 574.161 C 1910.57 597.28 1909.98 619.212 1910.99 642.339 C 1933.7 642.205 1956.41 642.252 1979.12 642.48 L 1979.13 750.355 C 1958.03 750.237 1931.11 749.522 1910.48 750.954 C 1909.72 770.021 1909.49 800.05 1910.84 818.85 L 1842.87 819.119 L 1842.77 886.888 L 1605.29 887.113 C 1571.26 887.137 1535.08 886.484 1501.3 887.372 C 1500.46 932.341 1501.44 978.915 1501.48 1024.03 C 1522.46 1024.01 1549.48 1023.26 1570 1024.17 C 1569.86 1067.11 1568.13 1118.91 1570.09 1160.77 C 1592.62 1161.22 1615.16 1161.29 1637.69 1160.97 C 1638.42 1191.91 1637.87 1223.17 1637.88 1254.17 L 1638.08 1432.97 C 1616.85 1433.14 1590.51 1432.33 1570.03 1433.4 L 1570.14 1501.95 C 1547.37 1501.91 1523.93 1501.6 1501.22 1501.9 C 1500.65 1524.56 1501.43 1547.3 1501.08 1569.93 C 1479.56 1569.87 1454.71 1569.28 1433.46 1569.98 C 1433.33 1592.15 1433.76 1616.12 1433.15 1638.06 C 1388.33 1637.88 1341.63 1637.39 1296.91 1638.1 C 1295.73 1660.62 1296.31 1683.34 1296.15 1705.94 L 1228.12 1705.97 C 1228.06 1749.81 1227.02 1799.73 1228.82 1843.01 C 1274.09 1842.92 1320.06 1844.29 1364.91 1843.73 C 1364.89 1865.6 1364.44 1889.61 1365.01 1911.31 C 1381.1 1912.2 1417.01 1912.28 1433.21 1910.95 C 1433.04 1955.13 1432.09 2004.17 1433.3 2048 L 614.813 2048 C 613.081 1935.64 614.665 1819.02 614.643 1706.32 C 594.748 1705.38 567.235 1706.2 546.805 1706.24 C 545.778 1684.82 546.395 1659.88 546.422 1638.2 C 503.448 1636.77 453.514 1637.99 410.041 1637.92 L 409.783 1569.97 L 341.222 1569.86 C 342.169 1548.46 341.28 1523.76 341.069 1502 C 318.391 1501.63 295.709 1501.52 273.029 1501.68 C 273.493 1476.75 274.216 1459.05 273.027 1433.66 C 257.376 1432.01 221.906 1433.08 204.983 1433.12 C 206.545 1390.87 204.056 1340.62 204.613 1297.1 C 182.295 1296.26 159.447 1297.15 136.983 1296.93 L 136.863 1160.22 C 116.572 1159.25 89.7174 1159.91 68.8681 1159.84 L 68.828 819.797 C 91.5314 819.859 114.235 819.748 136.937 819.463 C 136.68 796.762 136.702 774.059 137.004 751.359 L 272.644 751.791 C 271.084 764.952 272.832 804.039 272.919 819.414 C 281.108 818.85 291.961 819.557 300.409 819.683 C 313.861 819.762 327.315 819.765 340.768 819.693 C 339.59 839.934 340.416 866.997 341.039 887.326 C 363.252 887.161 387.227 887.789 409.025 887.238 C 408.79 910.181 408.846 933.126 409.196 956.068 L 476.949 956.065 C 477.134 977.827 476.7 1002.52 477.462 1024.02 C 500.234 1024.01 524.01 1023.67 546.699 1024.08 C 546.088 1001.98 546.443 978.166 546.713 956.056 C 592.144 955.714 637.577 955.712 683.008 956.049 C 681.905 936.577 682.587 907.473 682.981 887.826 C 725.246 888.953 771.828 887.944 814.59 887.941 L 1023.96 887.724 L 1024.28 887.363 C 1024.4 864.593 1024.35 841.824 1024.15 819.055 C 1013.34 818.706 1000.98 818.959 990.07 818.964 C 968.424 818.365 943.992 818.91 922.143 818.917 C 922.358 773.392 922.333 727.866 922.066 682.341 C 899.721 681.849 876.452 682.21 854.041 682.251 L 854.07 301.243 C 876.084 302.847 900.17 300.354 922.131 301.703 L 922.128 204.92 L 989.884 204.968 C 990.523 183.571 989.886 158.561 990.035 136.759 C 1021.45 138.021 1060.84 136.775 1092.9 136.764 C 1092.09 116.271 1092.33 89.0923 1092.95 68.6414 z M 819.032 1843.16 C 862.025 1842.15 912.397 1846.07 955.387 1843.33 C 955.486 1863.46 954.549 1891.83 955.811 1911.23 L 956.068 1911.73 C 977.537 1912.85 1002.48 1911.05 1024.57 1911.46 C 1023.31 1894.45 1024.37 1862.62 1024.37 1844.51 L 1024.17 1706.61 C 1005.51 1705.26 973.513 1706.22 953.989 1706.21 L 818.741 1706.19 L 819.032 1843.16 z"/>
<path transform="translate(0,0)" fill="rgb(0,0,0)" d="M 546.422 1638.2 C 654.657 1639.7 766.344 1638.33 874.888 1638.33 L 1296.91 1638.1 C 1295.73 1660.62 1296.31 1683.34 1296.15 1705.94 L 1228.12 1705.97 C 1228.06 1749.81 1227.02 1799.73 1228.82 1843.01 C 1274.09 1842.92 1320.06 1844.29 1364.91 1843.73 C 1364.89 1865.6 1364.44 1889.61 1365.01 1911.31 C 1381.1 1912.2 1417.01 1912.28 1433.21 1910.95 C 1433.04 1955.13 1432.09 2004.17 1433.3 2048 L 614.813 2048 C 613.081 1935.64 614.665 1819.02 614.643 1706.32 C 594.748 1705.38 567.235 1706.2 546.805 1706.24 C 545.778 1684.82 546.395 1659.88 546.422 1638.2 z M 819.032 1843.16 C 862.025 1842.15 912.397 1846.07 955.387 1843.33 C 955.486 1863.46 954.549 1891.83 955.811 1911.23 L 956.068 1911.73 C 977.537 1912.85 1002.48 1911.05 1024.57 1911.46 C 1023.31 1894.45 1024.37 1862.62 1024.37 1844.51 L 1024.17 1706.61 C 1005.51 1705.26 973.513 1706.22 953.989 1706.21 L 818.741 1706.19 L 819.032 1843.16 z"/>
<path transform="translate(0,0)" fill="rgb(246,125,35)" d="M 1093.3 1774.86 C 1115.43 1775.11 1137.55 1775.18 1159.67 1775.07 C 1159.95 1789.38 1158.68 1832.23 1160.35 1843.28 C 1183.08 1843.42 1206.13 1843.79 1228.82 1843.01 C 1274.09 1842.92 1320.06 1844.29 1364.91 1843.73 C 1364.89 1865.6 1364.44 1889.61 1365.01 1911.31 C 1365.22 1934.16 1365.29 1957 1365.22 1979.85 L 1092.11 1979.86 L 1092.24 1862.58 C 1094.2 1855.71 1093.33 1787.07 1093.3 1774.86 z"/>
<path transform="translate(0,0)" fill="rgb(0,0,0)" d="M 1228.82 1843.01 C 1274.09 1842.92 1320.06 1844.29 1364.91 1843.73 C 1364.89 1865.6 1364.44 1889.61 1365.01 1911.31 C 1320.01 1911.99 1274.01 1911.49 1228.92 1911.63 L 1228.82 1843.01 z"/>
<path transform="translate(0,0)" fill="rgb(231,106,31)" d="M 1092.11 1706.56 L 1160.74 1706.79 L 1160.99 1796.82 C 1161.02 1808.77 1161.72 1832.51 1160.35 1843.28 C 1158.68 1832.23 1159.95 1789.38 1159.67 1775.07 C 1137.55 1775.18 1115.43 1775.11 1093.3 1774.86 C 1093.33 1787.07 1094.2 1855.71 1092.24 1862.58 C 1090.67 1813.49 1092.17 1756.44 1092.11 1706.56 z"/>
<path transform="translate(0,0)" fill="rgb(246,125,35)" d="M 682.906 1706.69 L 750.917 1706.7 C 750.934 1731.62 751.469 1758.43 750.914 1783.18 C 751.051 1803.25 751.063 1823.33 750.951 1843.4 C 771.618 1843.39 798.871 1844.13 819.032 1843.16 C 862.025 1842.15 912.397 1846.07 955.387 1843.33 C 955.486 1863.46 954.549 1891.83 955.811 1911.23 L 956.068 1911.73 C 955.354 1933.21 955.89 1958.04 955.878 1979.76 L 682.811 1979.87 L 682.854 1774.06 L 682.906 1706.69 z"/>
<path transform="translate(0,0)" fill="rgb(0,0,0)" d="M 819.032 1843.16 C 862.025 1842.15 912.397 1846.07 955.387 1843.33 C 955.486 1863.46 954.549 1891.83 955.811 1911.23 C 910.59 1912.17 864.644 1911.24 819.257 1911.71 L 819.032 1843.16 z"/>
<path transform="translate(0,0)" fill="rgb(231,106,31)" d="M 682.906 1706.69 L 750.917 1706.7 C 750.934 1731.62 751.469 1758.43 750.914 1783.18 L 749.693 1777 C 744.667 1772.66 695.676 1776.6 682.854 1774.06 L 682.906 1706.69 z"/>
<path transform="translate(0,0)" fill="rgb(238,193,11)" d="M 1501.8 1365.45 C 1523.97 1365.27 1548.11 1364.61 1570.12 1365.32 L 1570.03 1433.4 L 1570.14 1501.95 C 1547.37 1501.91 1523.93 1501.6 1501.22 1501.9 C 1500.65 1524.56 1501.43 1547.3 1501.08 1569.93 C 1479.56 1569.87 1454.71 1569.28 1433.46 1569.98 C 1433.33 1592.15 1433.76 1616.12 1433.15 1638.06 C 1388.33 1637.88 1341.63 1637.39 1296.91 1638.1 L 874.888 1638.33 C 766.344 1638.33 654.657 1639.7 546.422 1638.2 C 503.448 1636.77 453.514 1637.99 410.041 1637.92 L 409.783 1569.97 L 341.222 1569.86 C 342.169 1548.46 341.28 1523.76 341.069 1502 C 318.391 1501.63 295.709 1501.52 273.029 1501.68 C 273.493 1476.75 274.216 1459.05 273.027 1433.66 C 294.175 1433.54 320.376 1432.77 341.074 1433.6 C 363.85 1433.91 386.629 1433.87 409.403 1433.47 C 409.58 1455.66 410.156 1479.63 409.559 1501.74 L 503.19 1501.99 C 511.714 1502 538.973 1502.59 546.466 1501.69 L 547.316 1502.01 C 568.31 1501.98 593.712 1501.28 614.371 1502.08 C 615.447 1482.73 614.654 1453.72 614.653 1433.72 C 659.649 1434.48 705.658 1433.47 750.854 1433.83 C 837.077 1432.55 924.137 1434.81 1010.41 1433.54 C 1018.02 1433.43 1054.47 1431.15 1058.74 1433.58 L 1023.98 1433.52 C 1023.99 1455.67 1023.5 1479.8 1024.02 1501.79 L 1024.01 1570.12 C 1031.91 1571.06 1045.49 1570.61 1053.92 1570.58 L 1108.45 1570.45 C 1151.3 1570.81 1194.15 1570.9 1237.01 1570.74 C 1248.18 1570.72 1288.09 1571.13 1296.95 1569.79 L 1296.81 1569.21 L 1296.84 1502 C 1342.48 1502.2 1388.12 1502.05 1433.76 1501.54 C 1434.46 1481 1433.68 1454.94 1433.76 1433.84 C 1455.96 1434.2 1479.28 1433.5 1501.56 1433.16 L 1501.8 1365.45 z"/>
<path transform="translate(0,0)" fill="rgb(0,0,0)" d="M 750.854 1433.83 C 837.077 1432.55 924.137 1434.81 1010.41 1433.54 C 1018.02 1433.43 1054.47 1431.15 1058.74 1433.58 L 1023.98 1433.52 C 1023.99 1455.67 1023.5 1479.8 1024.02 1501.79 L 1024.01 1570.12 C 1012.69 1570.88 992.28 1570.24 980.504 1570.24 L 893.826 1570.22 L 614.703 1570.43 C 614.698 1561.31 614.759 1552.61 614.163 1543.5 C 614.857 1530.56 614.694 1515.34 614.855 1502.23 L 614.371 1502.08 C 615.447 1482.73 614.654 1453.72 614.653 1433.72 C 659.649 1434.48 705.658 1433.47 750.854 1433.83 z"/>
<path transform="translate(0,0)" fill="rgb(238,193,11)" d="M 750.854 1433.83 C 837.077 1432.55 924.137 1434.81 1010.41 1433.54 C 1018.02 1433.43 1054.47 1431.15 1058.74 1433.58 L 1023.98 1433.52 C 1023.99 1455.67 1023.5 1479.8 1024.02 1501.79 C 1016.44 1500.88 984.229 1501.79 975.242 1501.81 L 868.975 1501.83 L 705.047 1501.76 C 677.33 1501.74 641.724 1500.64 614.855 1502.23 L 614.371 1502.08 C 615.447 1482.73 614.654 1453.72 614.653 1433.72 C 659.649 1434.48 705.658 1433.47 750.854 1433.83 z"/>
<path transform="translate(0,0)" fill="rgb(0,0,0)" d="M 341.069 1502 C 363.919 1501.7 386.773 1501.67 409.624 1501.89 L 409.751 1570.29 C 454.736 1570.16 501.193 1569.59 546.105 1570.28 C 547.065 1592.53 546.457 1615.85 546.422 1638.2 C 503.448 1636.77 453.514 1637.99 410.041 1637.92 L 409.783 1569.97 L 341.222 1569.86 C 342.169 1548.46 341.28 1523.76 341.069 1502 z"/>
<path transform="translate(0,0)" fill="rgb(0,0,0)" d="M 1297.62 1570.11 L 1433.46 1569.98 C 1433.33 1592.15 1433.76 1616.12 1433.15 1638.06 C 1388.33 1637.88 1341.63 1637.39 1296.91 1638.1 C 1297 1626.51 1296 1578.28 1297.62 1570.11 z"/>
<path transform="translate(0,0)" fill="rgb(0,0,0)" d="M 1570.03 1433.4 L 1570.14 1501.95 C 1547.37 1501.91 1523.93 1501.6 1501.22 1501.9 C 1502.69 1493.33 1501.7 1445.85 1501.58 1433.44 L 1570.03 1433.4 z"/>
<path transform="translate(0,0)" fill="rgb(251,228,5)" d="M 547.316 1502.01 C 568.31 1501.98 593.712 1501.28 614.371 1502.08 L 614.855 1502.23 C 614.694 1515.34 614.857 1530.56 614.163 1543.5 C 613.239 1550.47 613.614 1562.93 613.633 1570.36 C 591.083 1570.46 568.533 1570.41 545.984 1570.22 C 545.94 1561.56 544.749 1505.83 547.316 1502.01 z"/>
<path transform="translate(0,0)" fill="rgb(0,0,0)" d="M 273.027 1433.66 C 294.175 1433.54 320.376 1432.77 341.074 1433.6 C 341.546 1456.27 341.077 1479.29 341.069 1502 C 318.391 1501.63 295.709 1501.52 273.029 1501.68 C 273.493 1476.75 274.216 1459.05 273.027 1433.66 z"/>
<path transform="translate(0,0)" fill="rgb(0,0,0)" d="M 1433.74 1501.68 L 1501.22 1501.9 C 1500.65 1524.56 1501.43 1547.3 1501.08 1569.93 C 1479.56 1569.87 1454.71 1569.28 1433.46 1569.98 C 1434.08 1553.64 1433.76 1536.68 1433.65 1520.29 L 1433.74 1501.68 z"/>
<path transform="translate(0,0)" fill="rgb(251,228,5)" d="M 750.853 1160.66 L 1038.94 1160.54 L 1119.2 1160.53 C 1128.65 1160.53 1151.52 1159.86 1160.1 1161.06 C 1160.97 1163.72 1160.86 1163.59 1160.63 1166.41 C 1158.91 1173.88 1159.58 1215.46 1159.59 1226.24 L 1159.64 1365.06 C 1137.57 1365.06 1113.98 1365.77 1092.12 1365.41 C 1092.68 1384.87 1092.65 1413.83 1091.67 1433.3 C 1080.83 1433.4 1069.54 1433.67 1058.74 1433.58 C 1054.47 1431.15 1018.02 1433.43 1010.41 1433.54 C 924.137 1434.81 837.077 1432.55 750.854 1433.83 L 750.982 1365.19 L 614.686 1365.08 C 613.804 1343.44 614.545 1318.95 614.371 1296.97 C 591.666 1297.69 568.843 1296.98 546.029 1297.29 C 545.968 1282.89 545.042 1241.41 547.194 1228.99 L 751.017 1228.98 L 750.853 1160.66 z"/>
<path transform="translate(0,0)" fill="rgb(246,125,35)" d="M 1569.96 506.544 C 1592.74 506.736 1615.84 506.239 1638.51 506.635 L 1638.57 574.649 C 1656.95 574.571 1689.49 575.511 1706.63 574.268 C 1773.47 573.229 1843.98 573.725 1910.96 574.161 C 1910.57 597.28 1909.98 619.212 1910.99 642.339 C 1933.7 642.205 1956.41 642.252 1979.12 642.48 L 1979.13 750.355 C 1958.03 750.237 1931.11 749.522 1910.48 750.954 C 1909.72 770.021 1909.49 800.05 1910.84 818.85 L 1842.87 819.119 C 1729.64 819.192 1614.85 818.122 1501.8 819.43 C 1501.72 833.685 1502.47 866.439 1501.23 879.252 C 1499.94 863.436 1500.87 835.938 1500.92 819.368 C 1488.18 819.554 1464.28 818.481 1452.34 819.817 C 1446.56 819.438 1438.99 819.689 1433.07 819.731 L 1433.16 682.71 L 1501.12 682.709 C 1502.17 647.443 1501.49 609.75 1501.73 574.186 L 1569.8 574.303 L 1569.96 506.544 z"/>
<path transform="translate(0,0)" fill="rgb(0,0,0)" d="M 1706.63 574.268 C 1773.47 573.229 1843.98 573.725 1910.96 574.161 C 1910.57 597.28 1909.98 619.212 1910.99 642.339 C 1887.69 643.024 1862.45 642.509 1838.91 642.502 L 1706.58 642.687 L 1706.63 574.268 z"/>
<path transform="translate(0,0)" fill="rgb(0,0,0)" d="M 1910.99 642.339 C 1933.7 642.205 1956.41 642.252 1979.12 642.48 L 1979.13 750.355 C 1958.03 750.237 1931.11 749.522 1910.48 750.954 C 1909.72 770.021 1909.49 800.05 1910.84 818.85 L 1842.87 819.119 C 1843.55 797.444 1843.07 772.835 1843.14 750.943 L 1910.95 750.871 C 1911.15 714.694 1911.16 678.516 1910.99 642.339 z"/>
<path transform="translate(0,0)" fill="rgb(238,193,11)" d="M 137.004 751.359 L 272.644 751.791 C 271.084 764.952 272.832 804.039 272.919 819.414 C 281.108 818.85 291.961 819.557 300.409 819.683 C 313.861 819.762 327.315 819.765 340.768 819.693 C 339.59 839.934 340.416 866.997 341.039 887.326 C 318.804 887.957 295.335 887.692 272.996 887.766 L 273.009 819.39 L 236.223 819.834 C 226.801 820.8 214.689 820.439 205.022 820.416 L 204.791 1012.69 C 204.613 1060.73 203.74 1112.85 205.048 1160.61 C 226.084 1159.43 251.419 1160.82 273.274 1160.35 C 273.01 1205.93 272.976 1251.52 273.173 1297.11 C 295.809 1297.31 318.446 1297.29 341.081 1297.04 C 341.531 1342.56 341.529 1388.08 341.074 1433.6 C 320.376 1432.77 294.175 1433.54 273.027 1433.66 C 257.376 1432.01 221.906 1433.08 204.983 1433.12 C 206.545 1390.87 204.056 1340.62 204.613 1297.1 C 182.295 1296.26 159.447 1297.15 136.983 1296.93 L 136.863 1160.22 C 116.572 1159.25 89.7174 1159.91 68.8681 1159.84 L 68.828 819.797 C 91.5314 819.859 114.235 819.748 136.937 819.463 C 136.68 796.762 136.702 774.059 137.004 751.359 z"/>
<path transform="translate(0,0)" fill="rgb(0,0,0)" d="M 137.004 751.359 L 272.644 751.791 C 271.084 764.952 272.832 804.039 272.919 819.414 C 281.108 818.85 291.961 819.557 300.409 819.683 C 313.861 819.762 327.315 819.765 340.768 819.693 C 339.59 839.934 340.416 866.997 341.039 887.326 C 318.804 887.957 295.335 887.692 272.996 887.766 L 273.009 819.39 L 236.223 819.834 C 210.306 818.038 165.167 819.571 137.017 819.437 L 136.863 1160.22 C 116.572 1159.25 89.7174 1159.91 68.8681 1159.84 L 68.828 819.797 C 91.5314 819.859 114.235 819.748 136.937 819.463 C 136.68 796.762 136.702 774.059 137.004 751.359 z"/>
<path transform="translate(0,0)" fill="rgb(0,0,0)" d="M 136.863 1160.22 C 159.01 1160.68 183.324 1159.77 204.851 1160.62 C 204.707 1205.12 204.003 1252.53 204.913 1296.92 L 273.043 1297.18 L 273.027 1433.66 C 257.376 1432.01 221.906 1433.08 204.983 1433.12 C 206.545 1390.87 204.056 1340.62 204.613 1297.1 C 182.295 1296.26 159.447 1297.15 136.983 1296.93 L 136.863 1160.22 z"/>
<path transform="translate(0,0)" fill="rgb(0,0,0)" d="M 409.471 1160.64 C 446.324 1160.12 484.732 1160.67 521.689 1160.67 L 750.853 1160.66 L 751.017 1228.98 L 547.194 1228.99 C 545.042 1241.41 545.968 1282.89 546.029 1297.29 C 568.843 1296.98 591.666 1297.69 614.371 1296.97 C 614.545 1318.95 613.804 1343.44 614.686 1365.08 L 750.982 1365.19 L 750.854 1433.83 C 705.658 1433.47 659.649 1434.48 614.653 1433.72 C 614.654 1453.72 615.447 1482.73 614.371 1502.08 C 593.712 1501.28 568.31 1501.98 547.316 1502.01 L 546.466 1501.69 C 545.817 1479.39 546.285 1455.93 546.403 1433.54 L 477.73 1433.82 L 477.723 1365.37 L 409.46 1365.65 L 409.471 1160.64 z"/>
<path transform="translate(0,0)" fill="rgb(238,193,11)" d="M 477.867 1229.04 L 547.194 1228.99 C 545.042 1241.41 545.968 1282.89 546.029 1297.29 C 568.843 1296.98 591.666 1297.69 614.371 1296.97 C 614.545 1318.95 613.804 1343.44 614.686 1365.08 C 615.637 1384.74 614.742 1412.99 614.721 1433.27 L 546.558 1433.42 C 546.7 1410.97 546.264 1387.8 546.169 1365.27 L 477.918 1365.02 L 477.867 1229.04 z"/>
<path transform="translate(0,0)" fill="rgb(0,0,0)" d="M 750.659 1092.09 L 1160.89 1092.08 L 1160.69 1160.38 C 1182.87 1160.78 1206.8 1159.8 1228.49 1160.69 C 1228.06 1250.95 1227.52 1343.69 1228.45 1433.8 C 1206.12 1433.8 1183.25 1434.04 1160.97 1433.75 L 1160.8 1502.03 L 1071.7 1502.11 C 1057.31 1502.09 1037.93 1502.6 1024.02 1501.79 C 1023.5 1479.8 1023.99 1455.67 1023.98 1433.52 L 1058.74 1433.58 C 1069.54 1433.67 1080.83 1433.4 1091.67 1433.3 C 1092.65 1413.83 1092.68 1384.87 1092.12 1365.41 C 1113.98 1365.77 1137.57 1365.06 1159.64 1365.06 L 1159.59 1226.24 C 1159.58 1215.46 1158.91 1173.88 1160.63 1166.41 C 1160.86 1163.59 1160.97 1163.72 1160.1 1161.06 C 1151.52 1159.86 1128.65 1160.53 1119.2 1160.53 L 1038.94 1160.54 L 750.853 1160.66 C 750.672 1137.81 750.607 1114.95 750.659 1092.09 z"/>
<path transform="translate(0,0)" fill="rgb(238,193,11)" d="M 1159.64 1365.06 L 1159.59 1226.24 C 1159.58 1215.46 1158.91 1173.88 1160.63 1166.41 L 1160.79 1433.23 C 1137.75 1433.45 1114.71 1433.47 1091.67 1433.3 C 1092.65 1413.83 1092.68 1384.87 1092.12 1365.41 C 1113.98 1365.77 1137.57 1365.06 1159.64 1365.06 z"/>
<path transform="translate(0,0)" fill="rgb(0,0,0)" d="M 1501.8 819.43 C 1614.85 818.122 1729.64 819.192 1842.87 819.119 L 1842.77 886.888 L 1605.29 887.113 C 1571.26 887.137 1535.08 886.484 1501.3 887.372 C 1500.46 932.341 1501.44 978.915 1501.48 1024.03 C 1522.46 1024.01 1549.48 1023.26 1570 1024.17 C 1569.86 1067.11 1568.13 1118.91 1570.09 1160.77 C 1550.22 1159.76 1522.26 1160.53 1501.67 1160.38 C 1501.78 1114.94 1501.66 1069.5 1501.31 1024.06 L 1433.3 1024.13 C 1434.11 992.699 1432.77 960.03 1433.32 928.486 C 1433.54 915.332 1432.81 901.933 1433.67 888.777 C 1435.95 886.613 1437.32 887.337 1441.42 887.072 C 1449.83 887.573 1492.37 887.811 1500.1 886.709 C 1501.87 884.026 1501.19 883.113 1501.23 879.252 C 1502.47 866.439 1501.72 833.685 1501.8 819.43 z"/>
<path transform="translate(0,0)" fill="rgb(0,0,0)" d="M 854.07 301.243 C 876.084 302.847 900.17 300.354 922.131 301.703 L 922.26 682.765 C 944.767 682.778 967.464 682.633 989.953 682.924 C 989.746 705.505 989.745 728.087 989.951 750.668 C 989.86 773.433 989.899 796.199 990.07 818.964 C 968.424 818.365 943.992 818.91 922.143 818.917 C 922.358 773.392 922.333 727.866 922.066 682.341 C 899.721 681.849 876.452 682.21 854.041 682.251 L 854.07 301.243 z"/>
<path transform="translate(0,0)" fill="rgb(0,0,0)" d="M 1092.95 68.6414 L 1433.12 68.5042 C 1433.31 91.103 1433.26 113.703 1432.95 136.301 C 1419.53 137.285 1401.18 136.657 1387.24 136.657 L 1302.76 136.675 L 1161.44 136.65 C 1139.07 136.65 1115.07 137.188 1092.9 136.716 L 1092.76 204.99 L 989.884 204.968 C 990.523 183.571 989.886 158.561 990.035 136.759 C 1021.45 138.021 1060.84 136.775 1092.9 136.764 C 1092.09 116.271 1092.33 89.0923 1092.95 68.6414 z"/>
<path transform="translate(0,0)" fill="rgb(0,0,0)" d="M 1433.32 136.819 C 1455.77 136.826 1479.34 136.484 1501.69 136.916 C 1500.09 153.973 1501.36 186.548 1501.2 205.078 C 1524.12 204.962 1547.03 204.974 1569.94 205.113 L 1570.03 301.572 C 1591.87 301.831 1615.58 302.054 1637.39 301.505 C 1640.12 368.528 1636.51 439.131 1638.31 506.501 L 1706.71 506.5 C 1705.83 526.983 1706.72 553.061 1706.63 574.268 C 1689.49 575.511 1656.95 574.571 1638.57 574.649 L 1638.51 506.635 C 1615.84 506.239 1592.74 506.736 1569.96 506.544 L 1570.09 301.475 C 1547.84 302.105 1524.1 301.778 1501.71 301.815 C 1501.22 269.621 1502.05 237.261 1501.38 204.947 L 1433.18 204.993 L 1433.32 136.819 z"/>
<path transform="translate(0,0)" fill="rgb(238,193,11)" d="M 989.951 750.668 C 1023.48 751.601 1058.67 751.141 1092.27 751.006 C 1092.76 765.428 1092.44 780.064 1092.3 794.508 C 1092.23 801.757 1092.93 811.993 1092.37 818.919 C 1115.69 820.051 1137.69 819.103 1160.61 819.793 C 1160.44 863.853 1161.54 912.638 1159.95 955.97 C 1116.5 956.016 1067.06 954.861 1024.09 956.175 L 1023.96 887.724 L 1024.28 887.363 C 1024.4 864.593 1024.35 841.824 1024.15 819.055 C 1013.34 818.706 1000.98 818.959 990.07 818.964 C 989.899 796.199 989.86 773.433 989.951 750.668 z"/>
<path transform="translate(0,0)" fill="rgb(0,0,0)" d="M 1024.15 819.055 C 1046.57 819.408 1070.05 818.7 1092.16 819.341 C 1092.19 840.863 1093.08 866.622 1092.37 887.74 C 1075.8 887.753 1039.3 888.774 1024.28 887.363 C 1024.4 864.593 1024.35 841.824 1024.15 819.055 z"/>
<path transform="translate(0,0)" fill="rgb(0,0,0)" d="M 682.981 887.826 C 725.246 888.953 771.828 887.944 814.59 887.941 L 1023.96 887.724 L 1024.09 956.175 L 683.008 956.049 C 681.905 936.577 682.587 907.473 682.981 887.826 z"/>
<path transform="translate(0,0)" fill="rgb(0,0,0)" d="M 1570.09 1160.77 C 1592.62 1161.22 1615.16 1161.29 1637.69 1160.97 C 1638.42 1191.91 1637.87 1223.17 1637.88 1254.17 L 1638.08 1432.97 C 1616.85 1433.14 1590.51 1432.33 1570.03 1433.4 L 1570.12 1365.32 L 1570.09 1160.77 z"/>
<path transform="translate(0,0)" fill="rgb(0,0,0)" d="M 546.713 956.056 C 592.144 955.714 637.577 955.712 683.008 956.049 L 682.899 1024.04 C 639.617 1024.07 589.397 1025.37 546.699 1024.08 C 546.088 1001.98 546.443 978.166 546.713 956.056 z"/>
<path transform="translate(0,0)" fill="rgb(238,193,11)" d="M 922.131 301.703 L 923.327 301.88 L 923.192 463.091 C 923.187 499.644 922.497 537.873 923.108 574.277 C 945.074 574.025 968.077 574.556 989.793 574.048 C 989.874 607.647 991.22 650.205 989.953 682.924 C 967.464 682.633 944.767 682.778 922.26 682.765 L 922.131 301.703 z"/>
<path transform="translate(0,0)" fill="rgb(0,0,0)" d="M 922.128 204.92 L 989.884 204.968 C 989.76 237.273 989.804 269.577 990.015 301.881 C 971.158 301.848 941.321 300.859 923.327 301.88 L 922.131 301.703 L 922.128 204.92 z"/>
<path transform="translate(0,0)" fill="rgb(0,0,0)" d="M 477.462 1024.02 C 500.234 1024.01 524.01 1023.67 546.699 1024.08 C 546.251 1046.76 546.173 1069.46 546.466 1092.15 L 477.675 1092.18 C 477.766 1069.96 478.119 1046.12 477.462 1024.02 z"/>
<path transform="translate(0,0)" fill="rgb(0,0,0)" d="M 341.039 887.326 C 363.252 887.161 387.227 887.789 409.025 887.238 C 408.79 910.181 408.846 933.126 409.196 956.068 L 341.02 956.055 C 341.299 933.146 341.305 910.235 341.039 887.326 z"/>
<path transform="translate(0,0)" fill="rgb(0,0,0)" d="M 409.196 956.068 L 476.949 956.065 C 477.134 977.827 476.7 1002.52 477.462 1024.02 L 409.204 1024.16 C 409.348 1001.91 409.902 978.203 409.196 956.068 z"/>
<path transform="translate(0,0)" fill="rgb(0,0,0)" d="M 1296.95 369.499 C 1305.35 369.494 1361.86 368.326 1365.23 371.021 L 1365.5 375.831 L 1365.94 371.003 C 1369.36 369.039 1424.76 369.961 1433.19 370.339 C 1433.12 393.134 1432.95 415.159 1433.72 437.933 L 1433.75 574.479 C 1388.15 574.778 1342.54 574.741 1296.94 574.367 L 1296.95 369.499 z"/>
<path transform="translate(0,0)" fill="rgb(254,255,254)" d="M 1365.5 375.831 L 1365.94 371.003 C 1369.36 369.039 1424.76 369.961 1433.19 370.339 C 1433.12 393.134 1432.95 415.159 1433.72 437.933 L 1365.6 437.983 C 1365.44 417.266 1365.41 396.549 1365.5 375.831 z"/>
</svg>